<svg aria-hidden="true" style="position: absolute; width: 0; height: 0; overflow: hidden;" version="1.1" xmlns="http://www.w3.org/2000/svg" xmlns:xlink="http://www.w3.org/1999/xlink">
    <defs>
        <symbol id="icon-IMAGE1" viewBox="0 0 32 32">
            <path d="M21.333 13.653v-1.92c0-1.813-1.387-3.2-3.2-3.2h-11.733c-1.813 0-3.2 1.387-3.2 3.2v8.533c0 1.813 1.387 3.2 3.2 3.2h11.733c1.813 0 3.2-1.387 3.2-3.2v-1.92l7.467 4.053v-12.8l-7.467 4.053zM19.2 20.267c0 0.64-0.427 1.067-1.067 1.067h-11.733c-0.64 0-1.067-0.427-1.067-1.067v-8.533c0-0.64 0.427-1.067 1.067-1.067h11.733c0.64 0 1.067 0.427 1.067 1.067v8.533zM26.667 18.773l-5.12-2.773 5.12-2.773v5.547z"></path>
        </symbol>
        <symbol id="icon-IMAGE2" viewBox="0 0 32 32">
            <path d="M24.533 4.267h-17.067c-1.813 0-3.2 1.387-3.2 3.2v17.067c0 1.813 1.387 3.2 3.2 3.2h17.067c1.813 0 3.2-1.387 3.2-3.2v-17.067c0-1.813-1.387-3.2-3.2-3.2zM11.733 25.6h-4.267c-0.64 0-1.067-0.427-1.067-1.067v-11.733h5.333v12.8zM25.6 24.533c0 0.64-0.427 1.067-1.067 1.067h-10.667v-12.8h11.733v11.733zM25.6 10.667h-19.2v-3.2c0-0.64 0.427-1.067 1.067-1.067h17.067c0.64 0 1.067 0.427 1.067 1.067v3.2z"></path>
        </symbol>
        <symbol id="icon-IMAGE3" viewBox="0 0 32 32">
            <path d="M16 11.733c-2.347 0-4.267 1.92-4.267 4.267s1.92 4.267 4.267 4.267 4.267-1.92 4.267-4.267-1.92-4.267-4.267-4.267zM16 18.133c-1.173 0-2.133-0.96-2.133-2.133s0.96-2.133 2.133-2.133 2.133 0.96 2.133 2.133-0.96 2.133-2.133 2.133zM25.6 19.2c1.813 0 3.2-1.387 3.2-3.2s-1.387-3.2-3.2-3.2h-0.533c-0.107-0.32-0.213-0.64-0.427-0.96l0.427-0.427c1.28-1.28 1.28-3.307 0-4.48-1.28-1.28-3.307-1.28-4.48 0l-0.427 0.427c-0.32-0.107-0.64-0.32-0.96-0.427v-0.533c0-1.813-1.387-3.2-3.2-3.2s-3.2 1.387-3.2 3.2v0.533c-0.32 0.107-0.64 0.213-0.96 0.427l-0.427-0.427c-1.28-1.28-3.307-1.28-4.48 0-1.28 1.28-1.28 3.307 0 4.48l0.427 0.427c-0.107 0.32-0.32 0.64-0.427 0.96h-0.533c-1.813 0-3.2 1.387-3.2 3.2s1.387 3.2 3.2 3.2h0.533c0.107 0.32 0.213 0.64 0.427 0.96l-0.427 0.427c-1.28 1.28-1.28 3.307 0 4.48 1.28 1.28 3.307 1.28 4.48 0l0.427-0.427c0.32 0.107 0.64 0.32 0.96 0.427v0.533c0 1.813 1.387 3.2 3.2 3.2s3.2-1.387 3.2-3.2v-0.533c0.32-0.107 0.64-0.213 0.96-0.427l0.427 0.427c1.28 1.28 3.307 1.28 4.48 0 1.28-1.28 1.28-3.307 0-4.48l-0.427-0.427c0.107-0.32 0.32-0.64 0.427-0.96h0.533zM23.467 21.973c0.427 0.427 0.427 1.173 0 1.6s-1.067 0.427-1.493 0l-1.493-1.493c-0.96 0.747-2.133 1.28-3.413 1.387v2.133c0 0.64-0.427 1.067-1.067 1.067s-1.067-0.427-1.067-1.067v-2.24c-1.28-0.213-2.453-0.64-3.413-1.387l-1.493 1.493c-0.427 0.427-1.067 0.427-1.493 0s-0.427-1.067 0-1.493l1.493-1.493c-0.747-0.96-1.28-2.133-1.387-3.413h-2.24c-0.64 0-1.067-0.427-1.067-1.067s0.427-1.067 1.067-1.067h2.24c0.213-1.28 0.64-2.453 1.387-3.413l-1.493-1.493c-0.427-0.427-0.427-1.067 0-1.493s1.067-0.427 1.493 0l1.493 1.493c0.96-0.747 2.133-1.28 3.413-1.387v-2.24c0-0.64 0.427-1.067 1.067-1.067s1.067 0.427 1.067 1.067v2.24c1.28 0.213 2.453 0.64 3.413 1.387l1.493-1.493c0.427-0.427 1.067-0.427 1.493 0s0.427 1.067 0 1.493l-1.493 1.493c0.747 0.96 1.28 2.133 1.387 3.413h2.24c0.64 0 1.067 0.427 1.067 1.067s-0.427 1.067-1.067 1.067h-2.24c-0.213 1.28-0.64 2.453-1.387 3.413l1.493 1.493z"></path>
        </symbol>
        <symbol id="icon-IMAGE4" viewBox="0 0 32 32">
            <path d="M19.2 6.4c-4.16 0-7.68 2.667-9.067 6.4h-0.533c-3.52 0-6.4 2.88-6.4 6.4s2.88 6.4 6.4 6.4h9.6c5.333 0 9.6-4.267 9.6-9.6s-4.267-9.6-9.6-9.6zM19.2 23.467h-9.6c-2.347 0-4.267-1.92-4.267-4.267s1.92-4.267 4.267-4.267h2.24c0.533-3.627 3.627-6.4 7.36-6.4 4.16 0 7.467 3.307 7.467 7.467s-3.307 7.467-7.467 7.467z"></path>
        </symbol>
        <symbol id="icon-icon1" viewBox="0 0 30 32">
            <path   d="M26.192 2.564h-21.156c-1.712 0-3.022 1.308-3.022 3.022v21.156c0 1.712 1.31 3.022 3.022 3.022h10.578v-10.578h-3.022v-3.728h3.022v-3.124c0-3.223 1.813-5.54 5.643-5.54h2.72v3.929h-1.813c-1.511 0-2.116 1.108-2.116 2.215v2.519h3.929l-0.807 3.728h-3.022v10.578h6.044c1.714 0 3.022-1.31 3.022-3.022v-21.156c0-1.714-1.308-3.022-3.022-3.022z"></path>
        </symbol>
        <symbol id="icon-icon2" viewBox="0 0 30 32">
            <path   d="M26.395 11.227v0.706c0 7.556-5.742 16.219-16.22 16.219-0.025 0-0.054 0-0.083 0-3.221 0-6.222-0.939-8.746-2.558l0.065 0.039c0.404 0 0.907 0.101 1.412 0.101 2.72 0 5.138-0.907 7.051-2.418-2.517 0-4.633-1.712-5.339-3.929 0.302 0.101 0.706 0.101 1.108 0.101 0.505 0 1.008-0.101 1.511-0.203-2.619-0.604-4.633-2.921-4.633-5.641v-0.101c0.805 0.404 1.611 0.706 2.619 0.706-1.527-1.025-2.519-2.746-2.519-4.698 0-0.013 0-0.025 0-0.038v0.002c0-1.008 0.302-2.016 0.807-2.821 2.82 3.426 7.051 5.742 11.787 5.943-0.101-0.402-0.101-0.805-0.101-1.308 0-0.001 0-0.002 0-0.004 0-3.169 2.569-5.739 5.739-5.739 0.001 0 0.003 0 0.004 0h-0c1.612 0 3.124 0.704 4.13 1.813 1.31-0.302 2.519-0.706 3.627-1.412-0.433 1.342-1.327 2.433-2.491 3.109l-0.026 0.014c1.158-0.139 2.213-0.422 3.2-0.834l-0.079 0.029c-0.805 1.108-1.712 2.116-2.82 2.921z"></path>
        </symbol>
        <symbol id="icon-icon3" viewBox="0 0 30 32">
            <path   d="M27.401 11.026c-1.108-2.418-2.72-4.533-4.935-6.044-2.217-1.511-4.836-2.418-7.657-2.418-2.014 0-3.828 0.503-5.239 1.006-2.518 1.067-4.579 2.803-6.013 4.988l-0.031 0.050c-1.511 2.316-2.517 4.836-2.517 7.756 0 1.915 0.402 3.828 1.108 5.239 1.108 2.418 2.72 4.533 4.937 6.044 2.164 1.513 4.85 2.418 7.747 2.418 0.003 0 0.006 0 0.010 0h-0.001c1.915 0 3.828-0.505 5.239-1.008 2.418-1.108 4.533-2.72 6.044-5.036 1.511-2.318 2.418-4.836 2.418-7.657 0-2.014-0.302-3.828-1.109-5.339zM21.356 24.626c-0.549-2.601-1.174-4.794-1.93-6.926l0.116 0.377c0.404 0 1.109-0.201 1.511-0.201 1.209 0 2.217 0.201 3.124 0.302 0.302 0 0.604 0.201 0.907 0.201-0.302 1.31-0.805 2.418-1.511 3.627-0.503 0.907-1.209 1.915-2.217 2.62zM25.387 15.458c-0.302 0-0.604-0.201-1.108-0.201-0.907-0.101-2.116-0.302-3.426-0.302-0.805 0-1.511 0-2.217 0.201v-0.201c-0.201-0.302-0.302-0.807-0.503-1.008 1.69-0.784 3.147-1.692 4.476-2.754l-0.044 0.034c0.404-0.503 0.807-0.805 1.109-1.008 0.907 1.412 1.511 3.225 1.712 5.239zM20.249 9.111c-0.805 0.503-2.014 1.511-3.627 2.014-0.907-1.611-1.813-3.022-2.519-4.028-0.402-0.505-0.704-0.907-1.006-1.31 0.402-0.201 1.108-0.201 1.712-0.201 2.519 0 4.836 0.907 6.649 2.215-0.302 0.505-0.604 0.807-1.209 1.31zM9.772 6.996c0.604 0.907 2.014 2.921 3.525 5.239-3.828 0.907-7.253 1.108-8.764 1.209 0.503-1.412 1.108-2.519 2.014-3.627 0.825-1.192 1.909-2.148 3.176-2.799l0.048-0.023zM8.261 16.364c2.014-0.201 4.231-0.604 6.548-1.209 0.101 0.302 0.302 0.604 0.404 0.907-1.5 0.505-2.801 1.188-3.97 2.043l0.041-0.028c-1.559 1.029-2.865 2.304-3.898 3.783l-0.031 0.046c-0.302 0.302-0.604 0.805-0.907 1.108-1.31-1.712-2.116-3.929-2.217-6.245 0.706-0.101 2.217-0.302 4.030-0.404zM10.578 22.711c1.209-1.209 3.223-2.72 5.943-3.828 1.209 3.324 1.813 6.044 2.116 7.353-1.209 0.505-2.418 0.604-3.828 0.604-2.217 0-4.432-0.805-6.245-2.014 0.302-0.302 0.907-1.209 2.014-2.116z"></path>
        </symbol>
        <symbol id="icon-icon4" viewBox="0 0 30 32">
            <path   d="M12.19 15.559s2.82-0.203 2.82-3.728c0.101-3.525-2.316-5.239-5.237-5.239h-9.772v19.545h9.772s5.943 0.201 5.943-5.742c0 0 0.302-4.836-3.525-4.836zM4.332 10.018h5.44s1.308 0 1.308 2.014c0 2.016-0.805 2.318-1.712 2.318h-5.036v-4.332zM9.47 22.61h-5.138v-5.237h5.44s2.014 0 2.014 2.72c-0.101 2.316-1.511 2.517-2.316 2.517zM23.675 11.529c-7.253 0-7.253 7.556-7.253 7.556s-0.505 7.454 7.253 7.454c0 0 6.446 0.404 6.446-5.237h-3.324s0.101 2.116-3.022 2.116c0 0-3.324 0.201-3.324-3.426h9.671s1.109-8.462-6.446-8.462zM26.596 17.472h-6.146s0.404-3.022 3.324-3.022c2.923 0 2.821 3.022 2.821 3.022zM27.401 7.701h-7.756v2.418h7.756v-2.418z"></path>
        </symbol>
        <symbol id="icon-icon5" viewBox="0 0 30 32">
            <path   d="M22.062 13.040s-2.217 7.052-2.418 7.556c-0.101-0.604-1.712-13.196-1.712-13.196-3.829 0-5.844 2.72-6.951 5.54 0 0-2.72 7.052-2.923 7.657 0-0.503-0.402-7.556-0.402-7.556-0.203-3.525-3.426-5.641-6.044-5.641l3.122 19.040c4.030 0 6.146-2.72 7.253-5.541 0 0 2.418-6.245 2.519-6.448 0 0.302 1.712 12.089 1.712 12.089 4.030 0 6.146-2.517 7.355-5.339l5.641-13.801c-3.929 0-6.044 2.72-7.152 5.641z"></path>
        </symbol>
        <symbol id="icon-icon6" viewBox="0 0 30 32">
            <path  d="M25.186 3.57h-21.156c-1.714 0-3.022 1.31-3.022 3.022v21.156c0 1.714 1.308 3.022 3.022 3.022h21.156c1.712 0 3.022-1.308 3.022-3.022v-21.156c0-1.712-1.31-3.022-3.022-3.022zM14.608 25.532c0.006 0 0.013 0 0.020 0 4.607 0 8.341-3.735 8.341-8.341 0-0.008 0-0.015-0-0.023v0.001c0-0.503-0.101-1.006-0.201-1.511h2.418v10.88c0 0.604-0.505 1.008-1.008 1.008h-19.141c-0.556-0.002-1.005-0.452-1.006-1.008v-10.88h2.316c-0.101 0.505-0.201 1.008-0.201 1.511 0.1 4.635 3.828 8.363 8.462 8.363zM9.369 17.17c-0-0.010-0-0.022-0-0.034 0-2.874 2.33-5.204 5.204-5.204 0.013 0 0.025 0 0.038 0h-0.002c0.011-0 0.023-0 0.036-0 2.873 0 5.202 2.329 5.202 5.202 0 0.013-0 0.025-0 0.038v-0.002c0 0.011 0 0.023 0 0.036 0 2.874-2.33 5.204-5.204 5.204-0.012 0-0.024-0-0.036-0h0.002c-2.923 0-5.239-2.418-5.239-5.239zM24.178 11.125h-2.418c-0.556-0.001-1.006-0.451-1.008-1.006v-2.519c0-0.604 0.505-1.008 1.008-1.008h2.418c0.604 0 1.008 0.505 1.008 1.008v2.418c0 0.604-0.505 1.108-1.008 1.108z"></path>
        </symbol>
        <symbol id="icon-icon7" viewBox="0 0 30 32">
            <path  d="M29.115 6.996c-0.203-0.805-1.008-1.41-1.915-1.41h-24.178c-0.907 0-1.712 0.604-1.915 1.41l14.004 12.693 14.004-12.693zM22.364 17.17l6.85 6.146v-12.29l-6.85 6.144zM15.111 23.719l-5.036-4.533-8.967 8.059c0.203 0.907 1.008 1.511 1.915 1.511h24.178c0.907 0 1.712-0.604 1.915-1.41l-8.967-8.060-5.036 4.434zM1.008 11.026v12.29l6.85-6.146-6.85-6.144z"></path>
        </symbol>
    </defs>
</svg>